PathFileType	4	(X/Y/Z)	C:\Users\Basilio\Documents\Thesis Gigler\squatting_fais\c3dfiles\077\SLS_back_pre2\markers_experimental.trc
DataRate	CameraRate	NumFrames	NumMarkers	Units	OrigDataRate	OrigDataStartFrame	OrigNumFrames
200.000000	200.000000	4	60	mm	200.000000	1344	1537
Frame#	Time	FHD			RBHD			C7			T10			CLAV			LSHO			LUUPA			LMUPA			LDUPA			LLEP			LMEP			LRAD			LUL			LRFIN			RSHO			RUPA1			RMUPA			RDUPA			RLEP			RMEP			RRAD			RUL			RUFIN			LASI			RASI			USACR			LSACR			RSACR			LTHI1			LTHI2			LTHI3			LTHI4			LLFC			LMFC			LTIB1			LTIB2			LTIB3			LTIB4			LLMAL			LHEE			LMT1			LMT2			LMT5			RTHI			RTHI2			RTHI3			RTHI4			RLFC			RMFC			RTIB1			RTIB2			RTIB3			RTIB4			RLMAL			RMMAL			RHEE			RMT1			RMT2			RMT5			LBHD			
		X1	Y1	Z1	X2	Y2	Z2	X3	Y3	Z3	X4	Y4	Z4	X5	Y5	Z5	X6	Y6	Z6	X7	Y7	Z7	X8	Y8	Z8	X9	Y9	Z9	X10	Y10	Z10	X11	Y11	Z11	X12	Y12	Z12	X13	Y13	Z13	X14	Y14	Z14	X15	Y15	Z15	X16	Y16	Z16	X17	Y17	Z17	X18	Y18	Z18	X19	Y19	Z19	X20	Y20	Z20	X21	Y21	Z21	X22	Y22	Z22	X23	Y23	Z23	X24	Y24	Z24	X25	Y25	Z25	X26	Y26	Z26	X27	Y27	Z27	X28	Y28	Z28	X29	Y29	Z29	X30	Y30	Z30	X31	Y31	Z31	X32	Y32	Z32	X33	Y33	Z33	X34	Y34	Z34	X35	Y35	Z35	X36	Y36	Z36	X37	Y37	Z37	X38	Y38	Z38	X39	Y39	Z39	X40	Y40	Z40	X41	Y41	Z41	X42	Y42	Z42	X43	Y43	Z43	X44	Y44	Z44	X45	Y45	Z45	X46	Y46	Z46	X47	Y47	Z47	X48	Y48	Z48	X49	Y49	Z49	X50	Y50	Z50	X51	Y51	Z51	X52	Y52	Z52	X53	Y53	Z53	X54	Y54	Z54	X55	Y55	Z55	X56	Y56	Z56	X57	Y57	Z57	X58	Y58	Z58	X59	Y59	Z59	X60	Y60	Z60	

1345	6.72	-218.5846862792969	1858.137573242188	-1063.70068359375	-371.1922302246094	1757.572998046875	-981.4998779296877	-418.6013183593751	1607.741577148438	-1063.616088867188	-427.232147216797	1277.717651367188	-1045.163696289063	-256.8626098632813	1564.220336914063	-1052.623779296875	-282.9613952636719	1593.637939453125	-1228.323608398438	-125.8644714355469	1542.786743164063	-1342.292602539063	-94.73432922363283	1575.152709960938	-1319.627685546875	-57.83953094482423	1542.417358398438	-1355.173461914063	6.309212207794191	1553.55078125	-1356.060913085938	16.63437843322754	1484.807006835938	-1328.533935546875	303.9770812988282	1600.937622070313	-1255.1083984375	305.5364074707032	1594.9052734375	-1335.6923828125	399.9844360351564	1623.4228515625	-1268.08837890625	-293.3076171875001	1607.909790039063	-890.6174316406252	-152.1480255126953	1570.737182617188	-761.8607788085939	-122.808334350586	1600.825317382813	-789.0450439453127	-83.2576370239258	1575.020141601563	-749.3557739257814	-16.1423397064209	1583.789306640625	-752.0885009765626	-5.584510803222657	1511.257690429688	-778.066833496094	267.9531250000001	1623.264892578125	-841.754577636719	278.7653808593751	1634.176391601563	-764.7997436523439	364.9735412597657	1650.384521484375	-843.2107543945315	-250.4937896728516	1053.861938476563	-1154.129516601563	-262.0162048339844	1096.979125976563	-876.374206542969	-444.5379028320314	1184.598999023438	-1036.412109375	-452.7918090820314	1153.395385742188	-1063.606567382813	-460.4764099121095	1154.63134765625	-1007.957336425781	-325.7455139160157	847.6860961914065	-1198.552856445313	-296.4812622070313	769.4306640625002	-1193.75048828125	-247.1762084960938	771.7382812500002	-1191.456176757813	-321.7494506835938	718.8405761718751	-1169.759155273438	-289.5701293945313	572.4364624023439	-1140.996826171875	-279.4831848144532	558.7177124023439	-1008.201721191406	-265.1115417480469	353.5901184082032	-1057.348510742188	-294.3205871582032	304.1988830566407	-1127.290771484375	-265.4537353515626	303.2443847656251	-1090.519897460938	-277.4794921875001	227.4208679199219	-1055.491577148438	-341.0204467773438	108.8958435058594	-1093.61474609375	-397.988250732422	79.34837341308595	-1042.672607421875	-188.8560638427735	54.77154541015626	-1018.6669921875	-181.4071960449219	61.57387161254884	-1060.857543945313	-315.9093933105469	124.4324188232422	-1008.80810546875	-310.9585266113282	779.3030395507815	-776.0925903320315	-264.1863098144532	730.4631958007814	-767.6999511718751	-231.3553771972657	735.4411621093751	-774.0218505859377	-281.6168212890626	649.8757934570314	-771.295104980469	-273.6879882812501	585.9332275390626	-761.6984863281251	-246.2594451904297	553.8508300781251	-886.594177246094	-238.7136535644532	445.6958923339845	-761.0122070312501	-310.3080444335938	378.2156372070313	-718.0674438476564	-268.6130371093751	367.0733337402344	-737.9350585937501	-270.4424743652344	318.4949645996094	-772.7216796875002	-354.4045410156251	151.159164428711	-708.2060546875001	-326.4036254882813	147.293685913086	-796.6384887695315	-420.8475341796876	109.1397171020508	-758.7235717773439	-196.7470703125001	81.4624481201172	-752.0919189453126	-199.6977539062501	87.17080688476564	-713.2260742187501	-218.9257812500001	71.04238128662111	-664.8584594726564	-366.3527221679688	1756.514038085938	-1127.916870117188	
1346	6.725000000000001	-218.9079895019532	1857.933715820313	-1063.447021484375	-371.4768371582032	1757.536010742188	-981.0220336914065	-418.8410949707032	1607.693481445313	-1063.01708984375	-427.2014160156251	1277.434692382813	-1044.480224609375	-257.0463562011719	1564.19970703125	-1052.22802734375	-283.4673461914063	1593.56201171875	-1227.905151367188	-126.3736190795899	1542.674438476563	-1341.696411132813	-95.43275451660158	1575.131591796875	-1319.16259765625	-58.23897552490236	1542.406127929688	-1354.659790039063	5.814638137817384	1553.638671875	-1355.736450195313	16.14607810974121	1484.80859375	-1327.991088867188	303.5375366210938	1601.124877929688	-1254.976196289063	305.0654602050782	1595.251220703125	-1335.467895507813	400.4276123046876	1624.06640625	-1268.35400390625	-293.2982482910157	1607.95654296875	-890.164245605469	-152.1028289794922	1570.669921875	-761.5107421875001	-122.6558227539063	1600.184204101563	-788.5662841796877	-83.23841094970705	1575.001953125	-749.0099487304689	-16.11435317993164	1583.839233398438	-751.8427734375001	-5.570299625396729	1511.255493164063	-777.8117675781252	268.0334167480469	1623.89892578125	-841.8792724609377	278.8350830078126	1634.443603515625	-764.7589721679689	364.9718933105469	1650.797973632813	-843.2379150390627	-250.3008270263672	1053.831298828125	-1153.75244140625	-261.6106567382813	1096.871459960938	-875.7739257812502	-444.4020080566407	1184.450317382813	-1035.679809570313	-452.4871826171876	1153.088745117188	-1062.858032226563	-460.0913391113282	1154.529907226563	-1007.266906738281	-325.6182556152344	847.796569824219	-1198.033813476563	-296.3194580078126	769.3665161132815	-1193.681762695313	-246.5533142089844	771.5546875000002	-1191.05859375	-321.7926330566407	718.9691772460939	-1169.435791015625	-289.5586547851563	572.5633544921876	-1140.799072265625	-279.2963256835938	558.6925659179689	-1008.038269042969	-264.9514160156251	353.6554565429688	-1057.241943359375	-294.2142028808594	304.1972351074219	-1127.284790039063	-265.4525146484376	303.2523193359376	-1090.546752929688	-277.4706726074219	227.3783721923829	-1055.481079101563	-341.0384521484376	109.0146484375	-1093.648315429688	-397.9831848144532	79.34426116943361	-1042.666381835938	-188.8149719238282	54.77490615844728	-1018.750305175781	-182.8855285644532	60.23956298828126	-1061.179565429688	-315.8572998046876	124.3818969726563	-1008.84326171875	-311.8682250976563	779.0484619140627	-775.8679199218752	-265.2692260742188	729.8745117187501	-767.6992187500001	-232.3446197509766	734.8275146484376	-773.903503417969	-283.1115722656251	649.2664184570314	-771.2925415039065	-275.0692138671876	585.6356811523439	-761.6359863281251	-247.5224914550782	553.2357788085939	-886.4622802734377	-239.5056152343751	445.3785095214845	-760.7247924804689	-311.0540466308594	377.4494018554688	-717.9630737304689	-269.6316528320313	366.6142272949219	-737.8783569335939	-270.8858947753907	317.9050903320313	-772.5337524414065	-354.3852539062501	150.0285797119141	-707.9963989257814	-325.9004516601563	146.3056335449219	-796.236022949219	-420.6509704589845	108.4133682250977	-758.7442016601564	-196.7189178466797	80.34587860107423	-751.6494750976564	-199.5520172119141	85.96810913085939	-712.5194702148439	-219.0929870605469	69.20261383056642	-664.5677490234376	-366.7916870117188	1756.38525390625	-1127.53076171875	
1347	6.73	-218.7880249023438	1857.369018554688	-1063.052368164063	-371.7096862792969	1757.465454101563	-980.5729980468752	-419.2055053710939	1607.51318359375	-1062.478881835938	-427.1589965820314	1277.318237304688	-1043.69287109375	-257.1967468261719	1564.21533203125	-1051.900024414063	-283.9782409667969	1593.486694335938	-1227.576782226563	-126.8151092529297	1542.720336914063	-1341.225952148438	-95.85265350341798	1575.041870117188	-1318.690185546875	-58.97837829589845	1542.517944335938	-1354.171142578125	5.387646198272706	1553.702026367188	-1355.222412109375	15.69881629943848	1484.8544921875	-1327.505981445313	303.0838928222657	1601.338745117188	-1254.85302734375	304.6117858886719	1595.543823242188	-1335.290893554688	399.3282775878907	1623.890014648438	-1268.007446289063	-293.3690490722657	1607.758666992188	-889.7279052734377	-151.9937133789063	1570.745361328125	-761.1401977539064	-122.6027526855469	1600.956420898438	-788.2740478515627	-83.12879180908205	1575.01953125	-748.6461791992189	-15.97585391998291	1583.999633789063	-751.5213012695314	-5.395455837249757	1511.418701171875	-777.5457763671877	267.9945678710938	1623.991577148438	-841.6422119140627	278.8790588378907	1634.592895507813	-764.6265869140626	365.0191345214844	1651.033813476563	-843.1738281250002	-250.1732482910157	1053.811889648438	-1153.43017578125	-261.1848144531251	1096.72265625	-875.1941528320315	-444.2711791992189	1184.394165039063	-1035.039672851563	-452.3401184082032	1152.836791992188	-1062.104858398438	-459.9702453613282	1154.385986328125	-1006.616943359375	-325.7104492187501	847.9044189453127	-1197.636840820313	-296.3918762207032	769.4351196289065	-1193.208984375	-246.4394226074219	771.661071777344	-1190.930297851563	-321.8087463378907	719.0637207031251	-1169.099609375	-289.5785217285157	572.6649780273439	-1140.667602539063	-279.2205505371094	558.8362426757814	-1007.857299804688	-264.9002075195313	353.6519470214844	-1057.22216796875	-294.1521911621094	304.3293762207032	-1127.26318359375	-265.4252929687501	303.2712097167969	-1090.48193359375	-277.5008850097657	227.4110107421876	-1055.528564453125	-341.1141967773438	108.882308959961	-1093.709716796875	-397.9871520996095	79.35995483398439	-1042.711181640625	-188.8499603271485	54.83134078979494	-1018.760070800781	-182.8876495361328	60.10096740722658	-1061.16943359375	-315.8547668457032	124.3527450561524	-1008.902221679688	-312.7419128417969	778.7397460937502	-775.6710205078127	-266.3598937988282	729.3034057617189	-767.5507812500001	-233.5865325927735	733.9418945312501	-773.7572021484377	-284.5209045410157	648.9450683593751	-771.1253662109377	-276.7430419921876	584.9440307617189	-761.6184082031251	-250.0118713378907	553.0195312500001	-886.5669555664065	-241.0635375976563	444.636932373047	-760.8455810546876	-311.8692626953126	376.5979614257813	-717.8394775390626	-270.4686279296876	365.8377990722657	-737.8013305664064	-271.5010375976563	317.5499877929688	-772.3110961914065	-354.6512756347657	148.9142150878907	-707.8670043945314	-325.8768615722657	145.6858978271485	-796.1114501953127	-420.6130371093751	107.4080200195313	-758.8953857421876	-196.7344818115235	79.45503234863283	-751.4366455078126	-199.6680450439454	84.78134918212892	-712.2741088867189	-219.2666931152344	68.07561492919923	-664.3294067382814	-367.2750549316407	1756.702758789063	-1127.05908203125	
1348	6.735	-219.3133544921876	1857.744384765625	-1062.867797851563	-372.0504455566407	1757.52734375	-980.144958496094	-419.4723510742189	1607.455322265625	-1061.905639648438	-427.0010375976564	1277.275024414063	-1042.945922851563	-257.3507995605469	1564.224487304688	-1051.4970703125	-284.4995422363282	1593.445190429688	-1227.209594726563	-127.332504272461	1542.679443359375	-1340.797607421875	-96.37919616699222	1575.1728515625	-1318.304077148438	-59.53473281860353	1542.544189453125	-1353.700805664063	4.721540927886964	1553.723754882813	-1354.586791992188	15.08269596099854	1485.006958007813	-1327.231201171875	302.5783386230469	1601.673095703125	-1254.698974609375	304.2143859863282	1595.9033203125	-1335.178100585938	399.2669677734376	1624.329345703125	-1268.117553710938	-293.3838500976563	1607.642333984375	-889.2048339843752	-151.9582977294922	1570.483520507813	-761.0597534179689	-122.5035934448242	1600.630249023438	-787.878356933594	-83.01650238037111	1575.076416015625	-748.3269042968751	-15.92202854156494	1584.042358398438	-751.2598876953126	-5.25623655319214	1511.5703125	-777.2661132812502	268.0983886718751	1624.416625976563	-841.7104492187502	278.9461364746094	1634.863037109375	-764.5085449218751	364.9433288574219	1651.428466796875	-843.2023925781252	-249.9345855712891	1053.838256835938	-1153.03759765625	-260.9686584472657	1096.477294921875	-874.8417968750002	-444.0433959960939	1183.935180664063	-1034.440795898438	-452.0040588378907	1152.8623046875	-1061.523803710938	-459.6004028320314	1154.274291992188	-1005.946960449219	-325.7080993652344	847.8641357421877	-1197.19140625	-296.3513793945313	769.4958496093752	-1192.837280273438	-247.0135650634766	771.869567871094	-1190.971313476563	-321.8387451171876	719.2394409179689	-1168.786499023438	-289.6854858398438	572.7327880859376	-1140.59814453125	-279.3507385253907	558.7677001953126	-1007.643920898438	-264.8971557617188	353.6543884277344	-1057.22998046875	-294.1893310546876	304.4056701660157	-1127.216674804688	-265.4264221191407	303.3110961914063	-1090.438232421875	-277.4666442871094	227.3830566406251	-1055.565673828125	-341.1248474121094	108.9454650878907	-1093.73779296875	-397.9738769531251	79.33960723876955	-1042.71142578125	-188.8193511962891	54.89488601684572	-1018.780334472656	-181.7759704589844	60.9972496032715	-1061.0615234375	-315.8140563964844	124.3265533447266	-1008.971618652344	-313.5375976562501	778.4536743164065	-775.520690917969	-267.6909484863282	728.4193725585939	-767.5219726562501	-234.6237792968751	733.3783569335939	-773.6351318359377	-285.8977966308594	648.4560546875001	-770.9517211914065	-278.2763977050782	584.3135986328126	-761.5686035156251	-249.8654022216797	552.3111572265626	-886.299011230469	-241.9247741699219	443.9952087402345	-760.5833129882814	-312.8908691406251	375.8502197265626	-717.7306518554689	-271.0631103515626	365.1945800781251	-737.4902954101564	-272.1051635742188	316.6114807128907	-772.076354980469	-354.8150634765626	148.2407684326172	-707.8244628906251	-325.7764282226563	145.0066680908203	-795.9397583007815	-420.7013549804689	106.6855697631836	-759.0418090820314	-196.6274566650391	78.52650451660158	-751.1972045898439	-199.6949157714844	84.03855895996095	-711.9705200195314	-219.5803222656251	66.69980621337892	-664.2972412109376	-367.6451110839844	1756.401977539063	-1126.5185546875	
